<?xml version="1.0" encoding="UTF-8"?>
<svg width="32" height="32" viewBox="0 0 32 32" fill="none" xmlns="http://www.w3.org/2000/svg">
  <!-- 热气球主体 -->
  <path d="M16 4C11.582 4 8 7.582 8 12C8 16.418 12 22 16 28C20 22 24 16.418 24 12C24 7.582 20.418 4 16 4Z" fill="#FF5252"/>
  
  <!-- 热气球条纹 -->
  <path d="M16 4C13.791 4 11.8 5.074 10.6 6.8C14.6 8.8 17.4 8.8 21.4 6.8C20.2 5.074 18.209 4 16 4Z" fill="#FFC107"/>
  <path d="M10 10C13.6 12.4 18.4 12.4 22 10C22 10.4 22 10.8 22 12C22 12.8 21.6 14 21 15.6C18.2 17.2 13.8 17.2 11 15.6C10.4 14 10 12.8 10 12C10 10.8 10 10.4 10 10Z" fill="#FFC107"/>
  
  <!-- 热气球底部 -->
  <rect x="14" y="28" width="4" height="1" fill="#795548"/>
  
  <!-- 热气球篮子 -->
  <rect x="13" y="29" width="6" height="3" rx="1" fill="#8D6E63"/>
  
  <!-- 热气球线条 -->
  <line x1="14.5" y1="25" x2="14.5" y2="28" stroke="#795548" stroke-width="0.5"/>
  <line x1="17.5" y1="25" x2="17.5" y2="28" stroke="#795548" stroke-width="0.5"/>
  <line x1="13.5" y1="23" x2="13.5" y2="28" stroke="#795548" stroke-width="0.5"/>
  <line x1="18.5" y1="23" x2="18.5" y2="28" stroke="#795548" stroke-width="0.5"/>
</svg> 